<?xml version="1.0" encoding="UTF-8" standalone="no"?>
<!DOCTYPE svg PUBLIC "-//W3C//DTD SVG 1.1//EN"
 "http://www.w3.org/Graphics/SVG/1.1/DTD/svg11.dtd">
<!-- Generated by graphviz version 2.38.0 (20140413.2041)
 -->
<!-- Title: graphname Pages: 1 -->
<svg width="524pt" height="388pt"
 viewBox="0.00 0.00 524.37 387.64" xmlns="http://www.w3.org/2000/svg" xmlns:xlink="http://www.w3.org/1999/xlink">
<g id="graph0" class="graph" transform="scale(1 1) rotate(0) translate(4 383.638)">
<title>graphname</title>
<polygon fill="white" stroke="none" points="-4,4 -4,-383.638 520.368,-383.638 520.368,4 -4,4"/>
<!-- N1 -->
<g id="node1" class="node"><title>N1</title>
<polygon fill="none" stroke="black" points="212.068,-0.5 212.068,-88.5 284.893,-88.5 284.893,-0.5 212.068,-0.5"/>
<text text-anchor="middle" x="238.73" y="-40.3" font-family="Times,serif" font-size="14.00">Node1</text>
<polyline fill="none" stroke="black" points="265.393,-0.5 265.393,-88.5 "/>
<text text-anchor="middle" x="275.143" y="-73.3" font-family="Times,serif" font-size="14.00"> </text>
<polyline fill="none" stroke="black" points="265.393,-66.5 284.893,-66.5 "/>
<text text-anchor="middle" x="275.143" y="-51.3" font-family="Times,serif" font-size="14.00"> </text>
<polyline fill="none" stroke="black" points="265.393,-44.5 284.893,-44.5 "/>
<text text-anchor="middle" x="275.143" y="-29.3" font-family="Times,serif" font-size="14.00"> </text>
<polyline fill="none" stroke="black" points="265.393,-22.5 284.893,-22.5 "/>
<text text-anchor="middle" x="275.143" y="-7.3" font-family="Times,serif" font-size="14.00"> </text>
</g>
<!-- N2 -->
<g id="node2" class="node"><title>N2</title>
<polygon fill="none" stroke="black" points="5.58224,-55.1794 5.58224,-143.179 122.731,-143.179 122.731,-55.1794 5.58224,-55.1794"/>
<text text-anchor="middle" x="32.2443" y="-94.9794" font-family="Times,serif" font-size="14.00">Node2</text>
<polyline fill="none" stroke="black" points="58.9065,-55.1794 58.9065,-143.179 "/>
<text text-anchor="middle" x="90.8186" y="-127.979" font-family="Times,serif" font-size="14.00"> </text>
<polyline fill="none" stroke="black" points="58.9065,-121.179 122.731,-121.179 "/>
<text text-anchor="middle" x="90.8186" y="-105.979" font-family="Times,serif" font-size="14.00"> </text>
<polyline fill="none" stroke="black" points="58.9065,-99.1794 122.731,-99.1794 "/>
<text text-anchor="middle" x="90.8186" y="-83.9794" font-family="Times,serif" font-size="14.00">Vnode 2</text>
<polyline fill="none" stroke="black" points="58.9065,-77.1794 122.731,-77.1794 "/>
<text text-anchor="middle" x="90.8186" y="-61.9794" font-family="Times,serif" font-size="14.00"> </text>
</g>
<!-- N1&#45;&gt;N2 -->
<!-- N5 -->
<g id="node5" class="node"><title>N5</title>
<polygon fill="none" stroke="black" points="325.987,-143.653 325.987,-231.653 398.811,-231.653 398.811,-143.653 325.987,-143.653"/>
<text text-anchor="middle" x="352.649" y="-183.453" font-family="Times,serif" font-size="14.00">Node5</text>
<polyline fill="none" stroke="black" points="379.311,-143.653 379.311,-231.653 "/>
<text text-anchor="middle" x="389.061" y="-216.453" font-family="Times,serif" font-size="14.00"> </text>
<polyline fill="none" stroke="black" points="379.311,-209.653 398.811,-209.653 "/>
<text text-anchor="middle" x="389.061" y="-194.453" font-family="Times,serif" font-size="14.00"> </text>
<polyline fill="none" stroke="black" points="379.311,-187.653 398.811,-187.653 "/>
<text text-anchor="middle" x="389.061" y="-172.453" font-family="Times,serif" font-size="14.00"> </text>
<polyline fill="none" stroke="black" points="379.311,-165.653 398.811,-165.653 "/>
<text text-anchor="middle" x="389.061" y="-150.453" font-family="Times,serif" font-size="14.00"> </text>
</g>
<!-- N1&#45;&gt;N5 -->
<!-- N2&#45;&gt;N1 -->
<!-- N3 -->
<g id="node3" class="node"><title>N3</title>
<polygon fill="none" stroke="black" points="5.58224,-232.126 5.58224,-320.126 122.731,-320.126 122.731,-232.126 5.58224,-232.126"/>
<text text-anchor="middle" x="32.2443" y="-271.926" font-family="Times,serif" font-size="14.00">Node3</text>
<polyline fill="none" stroke="black" points="58.9065,-232.126 58.9065,-320.126 "/>
<text text-anchor="middle" x="90.8186" y="-304.926" font-family="Times,serif" font-size="14.00"> </text>
<polyline fill="none" stroke="black" points="58.9065,-298.126 122.731,-298.126 "/>
<text text-anchor="middle" x="90.8186" y="-282.926" font-family="Times,serif" font-size="14.00">Vnode 1</text>
<polyline fill="none" stroke="black" points="58.9065,-276.126 122.731,-276.126 "/>
<text text-anchor="middle" x="90.8186" y="-260.926" font-family="Times,serif" font-size="14.00"> </text>
<polyline fill="none" stroke="black" points="58.9065,-254.126 122.731,-254.126 "/>
<text text-anchor="middle" x="90.8186" y="-238.926" font-family="Times,serif" font-size="14.00"> </text>
</g>
<!-- N2&#45;&gt;N3 -->
<!-- N3&#45;&gt;N2 -->
<!-- N4 -->
<g id="node4" class="node"><title>N4</title>
<polygon fill="none" stroke="black" points="189.906,-286.805 189.906,-374.805 307.055,-374.805 307.055,-286.805 189.906,-286.805"/>
<text text-anchor="middle" x="216.568" y="-326.605" font-family="Times,serif" font-size="14.00">Node4</text>
<polyline fill="none" stroke="black" points="243.23,-286.805 243.23,-374.805 "/>
<text text-anchor="middle" x="275.143" y="-359.605" font-family="Times,serif" font-size="14.00">Vnode 0</text>
<polyline fill="none" stroke="black" points="243.23,-352.805 307.055,-352.805 "/>
<text text-anchor="middle" x="275.143" y="-337.605" font-family="Times,serif" font-size="14.00"> </text>
<polyline fill="none" stroke="black" points="243.23,-330.805 307.055,-330.805 "/>
<text text-anchor="middle" x="275.143" y="-315.605" font-family="Times,serif" font-size="14.00"> </text>
<polyline fill="none" stroke="black" points="243.23,-308.805 307.055,-308.805 "/>
<text text-anchor="middle" x="275.143" y="-293.605" font-family="Times,serif" font-size="14.00"> </text>
</g>
<!-- N3&#45;&gt;N4 -->
<!-- N4&#45;&gt;N2 -->
<g id="edge17" class="edge"><title>N4:t&#45;&gt;N2:n22</title>
<path fill="none" stroke="black" d="M216.48,-286.805C216.48,-286.805 145.983,-136.762 127.532,-97.4931"/>
<polygon fill="black" stroke="black" points="130.577,-95.7418 123.156,-88.1794 124.241,-98.7186 130.577,-95.7418"/>
<text text-anchor="middle" x="135.705" y="-190.062" font-family="Times,serif" font-size="14.00" fill="darkgreen">replicate (7)</text>
</g>
<!-- N4&#45;&gt;N3 -->
<!-- N4&#45;&gt;N3 -->
<g id="edge14" class="edge"><title>N4:t&#45;&gt;N3:n31</title>
<path fill="none" stroke="black" d="M189.48,-330.805C189.48,-330.805 149.403,-304.411 131.556,-292.658"/>
<polygon fill="black" stroke="black" points="133.433,-289.703 123.156,-287.126 129.583,-295.549 133.433,-289.703"/>
<text text-anchor="middle" x="156.217" y="-297.698" font-family="Times,serif" font-size="14.00" fill="darkgreen">replicate (4)</text>
</g>
<!-- N4&#45;&gt;N4 -->
<g id="edge13" class="edge"><title>N4:t&#45;&gt;N4:n40</title>
<path fill="none" stroke="black" d="M216.48,-286.805C242.005,-277.805 325.055,-277.805 325.055,-330.805 325.055,-376.973 306.806,-382.924 285.229,-377.743"/>
<polygon fill="black" stroke="black" points="286.065,-374.339 275.48,-374.805 284.045,-381.041 286.065,-374.339"/>
<text text-anchor="middle" x="369.372" y="-326.605" font-family="Times,serif" font-size="14.00" fill="darkgreen">store locally (3)</text>
</g>
<!-- N4&#45;&gt;N5 -->
<!-- N4&#45;&gt;N5 -->
<g id="edge15" class="edge"><title>N4:t&#45;&gt;N5:t</title>
<path fill="none" stroke="black" d="M216.48,-286.805C216.48,-286.805 312.349,-247.904 343.057,-235.443"/>
<polygon fill="black" stroke="black" points="344.449,-238.656 352.399,-231.653 341.817,-232.169 344.449,-238.656"/>
<text text-anchor="middle" x="258.643" y="-248.004" font-family="Times,serif" font-size="14.00" fill="darkgreen">status (5)</text>
</g>
<!-- N5&#45;&gt;N1 -->
<!-- N5&#45;&gt;N4 -->
<!-- N5&#45;&gt;N4 -->
<g id="edge12" class="edge"><title>N5:t&#45;&gt;N4:t</title>
<path fill="none" stroke="black" d="M352.399,-231.653C352.399,-231.653 256.53,-270.554 225.823,-283.014"/>
<polygon fill="black" stroke="black" points="224.431,-279.802 216.48,-286.805 227.063,-286.288 224.431,-279.802"/>
<text text-anchor="middle" x="241.617" y="-262.054" font-family="Times,serif" font-size="14.00" fill="darkgreen">forward put (2)</text>
</g>
<!-- client -->
<g id="node6" class="node"><title>client</title>
<polygon fill="none" stroke="black" points="443.834,-169.653 443.834,-205.653 497.834,-205.653 497.834,-169.653 443.834,-169.653"/>
<text text-anchor="middle" x="470.382" y="-183.453" font-family="Times,serif" font-size="14.00">client</text>
</g>
<!-- N5&#45;&gt;client -->
<g id="edge16" class="edge"><title>N5:t&#45;&gt;client</title>
<path fill="none" stroke="black" d="M352.399,-143.653C352.399,-143.653 399.436,-161.127 434.224,-174.052"/>
<polygon fill="black" stroke="black" points="433.069,-177.356 443.662,-177.558 435.507,-170.795 433.069,-177.356"/>
<text text-anchor="middle" x="432.523" y="-149.438" font-family="Times,serif" font-size="14.00" fill="darkgreen">response (6)</text>
</g>
<!-- client&#45;&gt;N5 -->
<g id="edge11" class="edge"><title>client&#45;&gt;N5:t</title>
<path fill="none" stroke="black" d="M443.662,-177.558C417.574,-167.866 379.612,-153.763 362.016,-147.226"/>
<polygon fill="black" stroke="black" points="362.992,-143.854 352.399,-143.653 360.554,-150.416 362.992,-143.854"/>
<text text-anchor="middle" x="457.138" y="-163.36" font-family="Times,serif" font-size="14.00" fill="darkgreen">request PUT w=1 (1)</text>
</g>
</g>
</svg>
